<svg id="Layer_1" data-name="Layer 1" xmlns="http://www.w3.org/2000/svg" width="143.04" height="100.09" viewBox="0 0 143.04 100.09"><defs><style>.cls-1{fill:#fff;}</style></defs><title>icon-youtube</title><g id="anbiLB.tif"><path class="cls-1" d="M-71.23,230.51c-2.4-.08-11.67-.08-13.9,0h-28.78c-.88,0-1.75,0-2.63-.08-4.41-.27-20.56-1.09-28.84-1.48A11.58,11.58,0,0,1-154,225a27.68,27.68,0,0,1-4.34-6.62c-2.39-5.52-3.29-11.46-4-17.41l-.81-7.2-.16-22.57c.46-4.67.84-9.35,1.35-14,.7-6.46,2.11-12.71,5.4-18.44A12.69,12.69,0,0,1-146,131.93c8.69-.59,17.4-1.21,26.11-1.34q23.23-.34,46.47-.06c11.09.12,22.17.69,33.26,1,5,.16,9.4,1.49,12.31,5.87A30.58,30.58,0,0,1-25,142.77c2.4,5.87,3.34,12.07,3.93,18.34.25,2.71.54,5.41.81,8.11v20.31c-.11.82-.24,1.63-.33,2.45-.52,5.24-.82,10.52-1.6,15.73-.85,5.64-2.27,11.16-5.84,15.83-2.05,2.69-4.64,4.72-8.07,5-6.31.6-12.64,1-19,1.4C-58.92,230.24-69.69,230.51-71.23,230.51Zm5.92-50.12L-106.05,154v52.64Z" transform="translate(163.32 -130.42)"/></g></svg>