<svg id="Layer_1" data-name="Layer 1" xmlns="http://www.w3.org/2000/svg" width="121.69" height="100.06" viewBox="0 0 121.69 100.06"><defs><style>.cls-1{fill:#fff;}</style></defs><title>icon-twitter</title><g id="q6t4sv.tif"><path class="cls-1" d="M-277.59,161.38c-.92-7.14-.24-13.58,3.63-19.45a25.11,25.11,0,0,1,37.21-5.64c2,1.71,3.82,2.09,6.16,1.17,3.87-1.53,7.77-3,12-4.6-1.72,5.43-5.39,9.15-9.13,13.26l11.93-3.17.53.53c-3.33,3.39-6.53,6.92-10,10.11a5.25,5.25,0,0,0-2,4.12,75.5,75.5,0,0,1-6.26,29.68c-10.53,23.49-28.29,38-53.8,42.1-17,2.71-33.33-.06-48.36-8.95a3.94,3.94,0,0,1-1.2-1.07c13,.68,24.94-2.4,35.93-10.65-11.2-1.46-19-6.74-23.24-17.63h10.1c-11.62-4.65-18.22-12.62-19-25.18l10.08,2.84.42-.54c-10.56-9.22-12.59-20.17-7.06-33.49C-315.65,150.95-298.65,160-277.59,161.38Z" transform="translate(336.96 -130.43)"/></g></svg>