<svg id="Layer_1" data-name="Layer 1" xmlns="http://www.w3.org/2000/svg" width="100.08" height="100.08" viewBox="0 0 100.08 100.08"><defs><style>.cls-1{fill:#036b9b;}</style></defs><title>icon-information</title><path class="cls-1" d="M157.07,130.42a50,50,0,1,0,50,50A50,50,0,0,0,157.07,130.42Zm0,90.33a40.29,40.29,0,1,1,40.28-40.28A40.28,40.28,0,0,1,157.07,220.75Z" transform="translate(-107.03 -130.42)"/><path class="cls-1" d="M165.91,196.83l1.41,2.48c-4.42,4.06-8.57,8.44-14.67,9.94a13.09,13.09,0,0,1-4.64.21,5.79,5.79,0,0,1-5-7.07,73.93,73.93,0,0,1,2.82-9.5c1.63-4.45,3.53-8.8,5.29-13.2a8.84,8.84,0,0,0,.67-2.22c.15-1.28-.48-1.84-1.75-1.59a4.88,4.88,0,0,0-1.75.78c-1.13.77-2.19,1.62-3.49,2.59-.33-.56-.62-1.09-1-1.6a1,1,0,0,1,.21-1.54c3.55-3.16,7.36-5.82,12.31-6.15a10.66,10.66,0,0,1,5.69,1c3.12,1.6,4.36,4.75,3.13,8.72-1.12,3.59-2.56,7.08-3.84,10.62-.9,2.5-1.8,5-2.64,7.53-.37,1.1-.91,2.5.12,3.28s2.16-.37,3.07-1C163.16,199.13,164.39,198.06,165.91,196.83Z" transform="translate(-107.03 -130.42)"/><path class="cls-1" d="M171.3,158.53c-.13,2.32-1.7,4.51-4.42,5.8a7.22,7.22,0,0,1-7.9-.67,6.25,6.25,0,0,1-1.92-7.2,8,8,0,0,1,10.25-4.6C169.78,152.85,171.31,155.1,171.3,158.53Z" transform="translate(-107.03 -130.42)"/></svg>