<svg id="Layer_1" data-name="Layer 1" xmlns="http://www.w3.org/2000/svg" width="96.12" height="102.84" viewBox="0 0 96.12 102.84"><defs><style>.cls-1{fill:#036b9b;}</style></defs><title>icon-gear</title><g id="_0fUQNo.tif" data-name="0fUQNo.tif"><path class="cls-1" d="M-294.07,488.06a2.6,2.6,0,0,0,.24-1.09c.29-1.48.49-3,.86-4.45a31.81,31.81,0,0,1,1.14-3.2c.09-.23.19-.46.3-.71,2.91.39,5.76.93,8.65,1.42a26.19,26.19,0,0,1,4.86-6.39l-3.62-7.8.33-.32a17.87,17.87,0,0,1,3.15-2.22c.39-.22.78-.45,1.16-.67a21.93,21.93,0,0,1,3.82-1.81l.29-.08,5.14,7.1a24.77,24.77,0,0,1,8.14-1.12c1-2.71,1.89-5.45,3-8.14a36.72,36.72,0,0,1,9.71,2.7c-.39,2.89-.92,5.76-1.32,8.66.47.31.91.63,1.38.91a19.07,19.07,0,0,1,3.74,2.9c.31.31.59.63.89.95l7.89-3.65a31,31,0,0,1,5.18,8.66c-2.31,1.79-4.66,3.52-7.09,5.22.05.24.1.48.16.72a26.92,26.92,0,0,1,.77,4.12c.07.71.06,1.43.08,2.14,0,.28,0,.56,0,.88l4.1,1.51,4.06,1.55a35.3,35.3,0,0,1-2.57,9.86l-8.72-1.43a22.61,22.61,0,0,1-4.51,6.07c1.21,2.66,2.48,5.27,3.6,8a30.54,30.54,0,0,1-8.71,5.23l-.28-.38-4.57-6.44c-.26-.37-.26-.36-.69-.25-1,.26-2,.55-3,.75a16.53,16.53,0,0,1-3.55.27h-1l-.13.34-2.8,7.46c-.05.14-.08.29-.12.44h-.59s-.07-.06-.1-.06a36.94,36.94,0,0,1-3.86-.78,30.29,30.29,0,0,1-4.87-1.55l-.4-.19,1.33-8.57c-1.1-.7-2.24-1.34-3.28-2.12s-2-1.7-3-2.59l-7.88,3.61a36.66,36.66,0,0,1-5.09-8.73l7-5.07a25.73,25.73,0,0,1-.92-4,23.59,23.59,0,0,1-.23-4.13l-.27-.12-7.48-2.87a2.36,2.36,0,0,0-.36-.08Zm46.12,4-.06-1.1c0-.1,0-.2,0-.29a12.47,12.47,0,0,0-3.57-7.34A12,12,0,0,0-262,479.77a12.26,12.26,0,0,0-7.94,4.38,11.74,11.74,0,0,0-2.46,5,11.42,11.42,0,0,0-.26,4.66A12.54,12.54,0,0,0-268,501.8a12.47,12.47,0,0,0,4.88,2.24,11.13,11.13,0,0,0,4,.3,12.74,12.74,0,0,0,7.58-3.64A12.61,12.61,0,0,0-248,492Z" transform="translate(294.07 -422.86)"/><path class="cls-1" d="M-197.95,450.93c0,.26-.06.52-.09.79s-.08.8-.13,1.23l-1.37.15-5,.45c-.42,0-.45,0-.53.44a17,17,0,0,1-1.83,4.62c-.22.41-.27.35.07.75l3.92,4.67.15.2c-.2.26-.39.54-.61.79-1,1.1-2,2.21-3,3.29a8,8,0,0,1-1.89,1.48c-1.82-1.37-3.54-2.83-5.21-4.26-.86.45-1.64.88-2.44,1.28a10,10,0,0,1-2.17.78c-.28.07-.56.18-.84.26a.38.38,0,0,0-.31.38c-.05.7-.12,1.39-.18,2.09q-.18,2-.36,4c0,.11,0,.22-.07.38a29.49,29.49,0,0,1-7.83.11c-.33-2.25-.5-4.48-.74-6.74-.28-.09-.56-.18-.84-.25a14.86,14.86,0,0,1-4.25-1.75l-.18-.1c-.35-.2-.35-.19-.65.06l-3.31,2.79-1.55,1.28a23.7,23.7,0,0,1-5.53-5.54c1.35-1.76,2.8-3.42,4.22-5.16a17,17,0,0,1-2.52-5.89l-6.56-.62c-.07-.39-.15-.76-.19-1.13a20.77,20.77,0,0,1,0-6.27c.06-.36.06-.36.41-.4l5.51-.6.83-.1a16.68,16.68,0,0,1,2.41-5.64l-4.3-5.23a25.48,25.48,0,0,1,5.44-5.54l5.24,4.29a19.85,19.85,0,0,1,5.89-2.37c0-.27.06-.55.07-.82.09-1.85.28-3.68.52-5.52,0-.35,0-.36.4-.41l1.54-.17.58-.09h2.61a2.32,2.32,0,0,0,.32.07c.45,0,.89.06,1.34.1s.68.1,1.05.15l.72,6.8a19.21,19.21,0,0,1,5.42,2.26l5.22-4.28a28,28,0,0,1,5.59,5.52l-4.28,5.23a18.51,18.51,0,0,1,2.26,5.65l6.75.63.13,1.21c0,.29.06.58.09.87Zm-25.87-11.6a8.46,8.46,0,0,0-3,.39,9,9,0,0,0-3.79,2.48,9.27,9.27,0,0,0-2.4,9,9.42,9.42,0,0,0,11.7,6.87,9.55,9.55,0,0,0,6.86-11.46C-215.2,443.1-219,439-223.82,439.33Z" transform="translate(294.07 -422.86)"/></g></svg>