<svg id="Layer_1" data-name="Layer 1" xmlns="http://www.w3.org/2000/svg" width="86.17" height="100.08" viewBox="0 0 86.17 100.08"><defs><style>.cls-1{fill:#036b9b;}</style></defs><title>icon-account</title><g id="fpTmdy.tif"><path class="cls-1" d="M250.33,230.4a46.72,46.72,0,0,1-10.25-1.72c-3.52-.9-5.42-2.78-5.29-7.31.4-13.43,5.81-24,17.59-30.83a28.26,28.26,0,0,1,14.53-3.82c6.91,0,13.82.16,20.72,0,14.69-.4,27.77,9.69,31.82,24.31,1,3.6,1.06,7.46,1.46,11.21a5.14,5.14,0,0,1-3.58,5.7,30.57,30.57,0,0,1-7.86,2C303.6,230.45,259.36,230.63,250.33,230.4Z" transform="translate(-234.79 -130.42)"/></g><circle class="cls-1" cx="43.09" cy="26.06" r="26.06"/></svg>